<mxfile host="Electron" modified="2024-01-03T08:22:55.634Z" agent="Mozilla/5.0 (Macintosh; Intel Mac OS X 10_15_7) AppleWebKit/537.36 (KHTML, like Gecko) draw.io/22.1.16 Chrome/120.0.6099.109 Electron/28.1.0 Safari/537.36" etag="wXp1chtv_sXs_NeOQnCO" version="22.1.16" type="device">
  <diagram name="第 1 页" id="YCJGTo8b4ygSjgE1DNra">
    <mxGraphModel dx="1865" dy="1187" grid="1" gridSize="10" guides="1" tooltips="1" connect="1" arrows="1" fold="1" page="1" pageScale="1" pageWidth="1600" pageHeight="1200" math="0" shadow="0">
      <root>
        <mxCell id="0" />
        <mxCell id="1" parent="0" />
        <mxCell id="6vk_aekfuhbPxSqgxvW8-1" value="&lt;font style=&quot;font-size: 24px;&quot;&gt;0&lt;/font&gt;" style="whiteSpace=wrap;html=1;aspect=fixed;" parent="1" vertex="1">
          <mxGeometry x="440" y="200" width="80" height="80" as="geometry" />
        </mxCell>
        <mxCell id="6vk_aekfuhbPxSqgxvW8-2" value="&lt;font style=&quot;font-size: 24px;&quot;&gt;0&lt;/font&gt;" style="whiteSpace=wrap;html=1;aspect=fixed;" parent="1" vertex="1">
          <mxGeometry x="520" y="200" width="80" height="80" as="geometry" />
        </mxCell>
        <mxCell id="6vk_aekfuhbPxSqgxvW8-3" value="&lt;font style=&quot;font-size: 24px;&quot;&gt;0&lt;/font&gt;" style="whiteSpace=wrap;html=1;aspect=fixed;" parent="1" vertex="1">
          <mxGeometry x="600" y="200" width="80" height="80" as="geometry" />
        </mxCell>
        <mxCell id="6vk_aekfuhbPxSqgxvW8-5" value="&lt;font style=&quot;font-size: 24px;&quot;&gt;0&lt;/font&gt;" style="whiteSpace=wrap;html=1;aspect=fixed;" parent="1" vertex="1">
          <mxGeometry x="760" y="200" width="80" height="80" as="geometry" />
        </mxCell>
        <mxCell id="6vk_aekfuhbPxSqgxvW8-6" value="" style="shape=flexArrow;endArrow=classic;html=1;rounded=0;" parent="1" edge="1">
          <mxGeometry width="50" height="50" relative="1" as="geometry">
            <mxPoint x="719.23" y="120" as="sourcePoint" />
            <mxPoint x="719.23" y="180" as="targetPoint" />
          </mxGeometry>
        </mxCell>
        <mxCell id="6vk_aekfuhbPxSqgxvW8-7" value="&lt;font style=&quot;font-size: 24px;&quot;&gt;Start&lt;/font&gt;" style="text;html=1;strokeColor=none;fillColor=none;align=center;verticalAlign=middle;whiteSpace=wrap;rounded=0;" parent="1" vertex="1">
          <mxGeometry x="690" y="80" width="60" height="30" as="geometry" />
        </mxCell>
        <mxCell id="6vk_aekfuhbPxSqgxvW8-8" value="&lt;font style=&quot;font-size: 24px;&quot;&gt;End&lt;/font&gt;" style="text;html=1;strokeColor=none;fillColor=none;align=center;verticalAlign=middle;whiteSpace=wrap;rounded=0;" parent="1" vertex="1">
          <mxGeometry x="770" y="80" width="60" height="30" as="geometry" />
        </mxCell>
        <mxCell id="6vk_aekfuhbPxSqgxvW8-9" value="&lt;font style=&quot;font-size: 24px;&quot;&gt;push(6)&lt;/font&gt;" style="text;html=1;strokeColor=none;fillColor=none;align=center;verticalAlign=middle;whiteSpace=wrap;rounded=0;" parent="1" vertex="1">
          <mxGeometry x="290" y="320" width="120" height="30" as="geometry" />
        </mxCell>
        <mxCell id="6vk_aekfuhbPxSqgxvW8-14" value="" style="shape=flexArrow;endArrow=classic;html=1;rounded=0;" parent="1" edge="1">
          <mxGeometry width="50" height="50" relative="1" as="geometry">
            <mxPoint x="720" y="400" as="sourcePoint" />
            <mxPoint x="720" y="460" as="targetPoint" />
          </mxGeometry>
        </mxCell>
        <mxCell id="6vk_aekfuhbPxSqgxvW8-15" value="&lt;font style=&quot;font-size: 24px;&quot;&gt;Start&lt;/font&gt;" style="text;html=1;strokeColor=none;fillColor=none;align=center;verticalAlign=middle;whiteSpace=wrap;rounded=0;" parent="1" vertex="1">
          <mxGeometry x="690" y="360" width="60" height="30" as="geometry" />
        </mxCell>
        <mxCell id="6vk_aekfuhbPxSqgxvW8-16" value="&lt;font style=&quot;font-size: 24px;&quot;&gt;End&lt;/font&gt;" style="text;html=1;strokeColor=none;fillColor=none;align=center;verticalAlign=middle;whiteSpace=wrap;rounded=0;" parent="1" vertex="1">
          <mxGeometry x="450" y="360" width="60" height="30" as="geometry" />
        </mxCell>
        <mxCell id="6vk_aekfuhbPxSqgxvW8-18" value="" style="shape=flexArrow;endArrow=classic;html=1;rounded=0;" parent="1" edge="1">
          <mxGeometry width="50" height="50" relative="1" as="geometry">
            <mxPoint x="479" y="400" as="sourcePoint" />
            <mxPoint x="479" y="460" as="targetPoint" />
          </mxGeometry>
        </mxCell>
        <mxCell id="6vk_aekfuhbPxSqgxvW8-20" value="&lt;font style=&quot;font-size: 24px;&quot;&gt;pop()&lt;/font&gt;" style="text;html=1;strokeColor=none;fillColor=none;align=center;verticalAlign=middle;whiteSpace=wrap;rounded=0;" parent="1" vertex="1">
          <mxGeometry x="930" y="40" width="120" height="30" as="geometry" />
        </mxCell>
        <mxCell id="6vk_aekfuhbPxSqgxvW8-30" value="&lt;font style=&quot;font-size: 24px;&quot;&gt;pop()&lt;/font&gt;" style="text;html=1;strokeColor=none;fillColor=none;align=center;verticalAlign=middle;whiteSpace=wrap;rounded=0;" parent="1" vertex="1">
          <mxGeometry x="930" y="320" width="120" height="30" as="geometry" />
        </mxCell>
        <mxCell id="6vk_aekfuhbPxSqgxvW8-40" value="&lt;font style=&quot;font-size: 24px;&quot;&gt;5&lt;/font&gt;" style="rounded=0;whiteSpace=wrap;html=1;" parent="1" vertex="1">
          <mxGeometry x="680" y="200" width="80" height="80" as="geometry" />
        </mxCell>
        <mxCell id="6vk_aekfuhbPxSqgxvW8-42" value="" style="shape=flexArrow;endArrow=classic;html=1;rounded=0;" parent="1" edge="1">
          <mxGeometry width="50" height="50" relative="1" as="geometry">
            <mxPoint x="799.62" y="120" as="sourcePoint" />
            <mxPoint x="799.62" y="180" as="targetPoint" />
          </mxGeometry>
        </mxCell>
        <mxCell id="6vk_aekfuhbPxSqgxvW8-44" value="&lt;font style=&quot;font-size: 24px;&quot;&gt;0&lt;/font&gt;" style="whiteSpace=wrap;html=1;aspect=fixed;" parent="1" vertex="1">
          <mxGeometry x="440" y="480" width="80" height="80" as="geometry" />
        </mxCell>
        <mxCell id="6vk_aekfuhbPxSqgxvW8-45" value="&lt;font style=&quot;font-size: 24px;&quot;&gt;0&lt;/font&gt;" style="whiteSpace=wrap;html=1;aspect=fixed;" parent="1" vertex="1">
          <mxGeometry x="520" y="480" width="80" height="80" as="geometry" />
        </mxCell>
        <mxCell id="6vk_aekfuhbPxSqgxvW8-46" value="&lt;font style=&quot;font-size: 24px;&quot;&gt;0&lt;/font&gt;" style="whiteSpace=wrap;html=1;aspect=fixed;" parent="1" vertex="1">
          <mxGeometry x="600" y="480" width="80" height="80" as="geometry" />
        </mxCell>
        <mxCell id="6vk_aekfuhbPxSqgxvW8-48" value="&lt;font style=&quot;font-size: 24px;&quot;&gt;5&lt;/font&gt;" style="rounded=0;whiteSpace=wrap;html=1;" parent="1" vertex="1">
          <mxGeometry x="680" y="480" width="80" height="80" as="geometry" />
        </mxCell>
        <mxCell id="6vk_aekfuhbPxSqgxvW8-49" value="&lt;font style=&quot;font-size: 24px;&quot;&gt;6&lt;/font&gt;" style="rounded=0;whiteSpace=wrap;html=1;" parent="1" vertex="1">
          <mxGeometry x="760" y="480" width="80" height="80" as="geometry" />
        </mxCell>
        <mxCell id="6vk_aekfuhbPxSqgxvW8-50" value="" style="shape=flexArrow;endArrow=classic;html=1;rounded=0;" parent="1" edge="1">
          <mxGeometry width="50" height="50" relative="1" as="geometry">
            <mxPoint x="1400" y="120" as="sourcePoint" />
            <mxPoint x="1400" y="180" as="targetPoint" />
          </mxGeometry>
        </mxCell>
        <mxCell id="6vk_aekfuhbPxSqgxvW8-51" value="&lt;font style=&quot;font-size: 24px;&quot;&gt;Start&lt;/font&gt;" style="text;html=1;strokeColor=none;fillColor=none;align=center;verticalAlign=middle;whiteSpace=wrap;rounded=0;" parent="1" vertex="1">
          <mxGeometry x="1370" y="80" width="60" height="30" as="geometry" />
        </mxCell>
        <mxCell id="6vk_aekfuhbPxSqgxvW8-52" value="&lt;font style=&quot;font-size: 24px;&quot;&gt;End&lt;/font&gt;" style="text;html=1;strokeColor=none;fillColor=none;align=center;verticalAlign=middle;whiteSpace=wrap;rounded=0;" parent="1" vertex="1">
          <mxGeometry x="1050" y="80" width="60" height="30" as="geometry" />
        </mxCell>
        <mxCell id="6vk_aekfuhbPxSqgxvW8-53" value="" style="shape=flexArrow;endArrow=classic;html=1;rounded=0;" parent="1" edge="1">
          <mxGeometry width="50" height="50" relative="1" as="geometry">
            <mxPoint x="1079" y="120" as="sourcePoint" />
            <mxPoint x="1079" y="180" as="targetPoint" />
          </mxGeometry>
        </mxCell>
        <mxCell id="6vk_aekfuhbPxSqgxvW8-54" value="&lt;font style=&quot;font-size: 24px;&quot;&gt;0&lt;/font&gt;" style="whiteSpace=wrap;html=1;aspect=fixed;" parent="1" vertex="1">
          <mxGeometry x="1040" y="200" width="80" height="80" as="geometry" />
        </mxCell>
        <mxCell id="6vk_aekfuhbPxSqgxvW8-55" value="&lt;font style=&quot;font-size: 24px;&quot;&gt;0&lt;/font&gt;" style="whiteSpace=wrap;html=1;aspect=fixed;" parent="1" vertex="1">
          <mxGeometry x="1120" y="200" width="80" height="80" as="geometry" />
        </mxCell>
        <mxCell id="6vk_aekfuhbPxSqgxvW8-56" value="&lt;font style=&quot;font-size: 24px;&quot;&gt;0&lt;/font&gt;" style="whiteSpace=wrap;html=1;aspect=fixed;" parent="1" vertex="1">
          <mxGeometry x="1200" y="200" width="80" height="80" as="geometry" />
        </mxCell>
        <mxCell id="6vk_aekfuhbPxSqgxvW8-57" value="&lt;font style=&quot;font-size: 24px;&quot;&gt;0&lt;/font&gt;" style="rounded=0;whiteSpace=wrap;html=1;" parent="1" vertex="1">
          <mxGeometry x="1280" y="200" width="80" height="80" as="geometry" />
        </mxCell>
        <mxCell id="6vk_aekfuhbPxSqgxvW8-58" value="&lt;font style=&quot;font-size: 24px;&quot;&gt;6&lt;/font&gt;" style="rounded=0;whiteSpace=wrap;html=1;" parent="1" vertex="1">
          <mxGeometry x="1360" y="200" width="80" height="80" as="geometry" />
        </mxCell>
        <mxCell id="6vk_aekfuhbPxSqgxvW8-61" value="&lt;font style=&quot;font-size: 24px;&quot;&gt;End&lt;/font&gt;" style="text;html=1;strokeColor=none;fillColor=none;align=center;verticalAlign=middle;whiteSpace=wrap;rounded=0;" parent="1" vertex="1">
          <mxGeometry x="1050" y="360" width="60" height="30" as="geometry" />
        </mxCell>
        <mxCell id="6vk_aekfuhbPxSqgxvW8-62" value="" style="shape=flexArrow;endArrow=classic;html=1;rounded=0;" parent="1" edge="1">
          <mxGeometry width="50" height="50" relative="1" as="geometry">
            <mxPoint x="1079" y="400" as="sourcePoint" />
            <mxPoint x="1079" y="460" as="targetPoint" />
          </mxGeometry>
        </mxCell>
        <mxCell id="6vk_aekfuhbPxSqgxvW8-63" value="&lt;font style=&quot;font-size: 24px;&quot;&gt;0&lt;/font&gt;" style="whiteSpace=wrap;html=1;aspect=fixed;" parent="1" vertex="1">
          <mxGeometry x="1040" y="480" width="80" height="80" as="geometry" />
        </mxCell>
        <mxCell id="6vk_aekfuhbPxSqgxvW8-64" value="&lt;font style=&quot;font-size: 24px;&quot;&gt;0&lt;/font&gt;" style="whiteSpace=wrap;html=1;aspect=fixed;" parent="1" vertex="1">
          <mxGeometry x="1120" y="480" width="80" height="80" as="geometry" />
        </mxCell>
        <mxCell id="6vk_aekfuhbPxSqgxvW8-65" value="&lt;font style=&quot;font-size: 24px;&quot;&gt;0&lt;/font&gt;" style="whiteSpace=wrap;html=1;aspect=fixed;" parent="1" vertex="1">
          <mxGeometry x="1200" y="480" width="80" height="80" as="geometry" />
        </mxCell>
        <mxCell id="6vk_aekfuhbPxSqgxvW8-66" value="&lt;font style=&quot;font-size: 24px;&quot;&gt;0&lt;/font&gt;" style="rounded=0;whiteSpace=wrap;html=1;" parent="1" vertex="1">
          <mxGeometry x="1280" y="480" width="80" height="80" as="geometry" />
        </mxCell>
        <mxCell id="6vk_aekfuhbPxSqgxvW8-67" value="&lt;font style=&quot;font-size: 24px;&quot;&gt;0&lt;/font&gt;" style="rounded=0;whiteSpace=wrap;html=1;" parent="1" vertex="1">
          <mxGeometry x="1360" y="480" width="80" height="80" as="geometry" />
        </mxCell>
        <mxCell id="6vk_aekfuhbPxSqgxvW8-68" value="&lt;font style=&quot;font-size: 24px;&quot;&gt;Start&lt;/font&gt;" style="text;html=1;strokeColor=none;fillColor=none;align=center;verticalAlign=middle;whiteSpace=wrap;rounded=0;" parent="1" vertex="1">
          <mxGeometry x="1050" y="320" width="60" height="30" as="geometry" />
        </mxCell>
        <mxCell id="Mi3WskyFemVTfp02ImCL-1" value="&lt;font style=&quot;font-size: 24px;&quot;&gt;0&lt;/font&gt;" style="ellipse;whiteSpace=wrap;html=1;" vertex="1" parent="1">
          <mxGeometry x="320" y="80" width="60" height="60" as="geometry" />
        </mxCell>
        <mxCell id="Mi3WskyFemVTfp02ImCL-2" value="&lt;font style=&quot;font-size: 24px;&quot;&gt;1&lt;/font&gt;" style="ellipse;whiteSpace=wrap;html=1;" vertex="1" parent="1">
          <mxGeometry x="320" y="360" width="60" height="60" as="geometry" />
        </mxCell>
        <mxCell id="Mi3WskyFemVTfp02ImCL-3" value="&lt;font style=&quot;font-size: 24px;&quot;&gt;2&lt;/font&gt;" style="ellipse;whiteSpace=wrap;html=1;" vertex="1" parent="1">
          <mxGeometry x="960" y="80" width="60" height="60" as="geometry" />
        </mxCell>
        <mxCell id="Mi3WskyFemVTfp02ImCL-4" value="&lt;font style=&quot;font-size: 24px;&quot;&gt;3&lt;/font&gt;" style="ellipse;whiteSpace=wrap;html=1;" vertex="1" parent="1">
          <mxGeometry x="960" y="360" width="60" height="60" as="geometry" />
        </mxCell>
      </root>
    </mxGraphModel>
  </diagram>
</mxfile>
